<svg width="16" height="20" viewBox="0 0 16 20" fill="none" xmlns="http://www.w3.org/2000/svg">
<g id="Layer_1" clip-path="url(#clip0_728_4134)">
<path id="Vector" d="M16 11.2671C16 13.902 16 16.5369 16 19.1718C16 19.7926 15.8075 19.9995 15.2324 19.9995C11.1692 19.9995 7.10645 19.9995 3.04326 19.9995C2.48909 19.9995 2.28412 19.7794 2.28367 19.184C2.28367 13.8976 2.28367 8.61177 2.28278 3.32541C2.28278 3.0936 2.27162 2.83592 2.45872 2.69976C2.61457 2.58653 2.824 2.50699 3.00977 2.5065C6.4326 2.49527 9.85588 2.4982 13.2787 2.49869C13.9334 2.49869 14.5884 2.49869 15.2431 2.49869C15.8008 2.49869 15.9996 2.71098 15.9996 3.31321C16 5.9642 15.9996 8.61567 15.9996 11.2667L16 11.2671ZM5.14519 7.48539H13.1282V6.25165C13.0277 6.25165 12.9407 6.25165 12.8536 6.25165C10.3774 6.25165 7.90131 6.25165 5.42518 6.25165C5.37293 6.25165 5.31398 6.23652 5.27111 6.25848C5.22199 6.28337 5.15189 6.34096 5.15099 6.38586C5.14117 6.74846 5.14563 7.11205 5.14563 7.48588L5.14519 7.48539ZM5.14563 9.98509H13.1215V8.75427C13.0282 8.75427 12.9545 8.75427 12.8808 8.75427C10.3904 8.75427 7.89997 8.75427 5.40999 8.75427C5.35819 8.75427 5.29969 8.74061 5.25593 8.76208C5.21172 8.78306 5.15144 8.83919 5.15055 8.88116C5.14206 9.24425 5.14563 9.60784 5.14563 9.98557V9.98509ZM13.13 11.2481C13.0237 11.2481 12.9429 11.2481 12.8625 11.2481C10.3846 11.2481 7.90623 11.2481 5.4283 11.2476C5.37605 11.2476 5.31711 11.2325 5.27379 11.254C5.22378 11.2789 5.15233 11.336 5.15099 11.3809C5.14117 11.7439 5.14519 12.107 5.14519 12.4755H13.1296V11.2486L13.13 11.2481ZM13.13 15.6311H8.01474V16.8566H13.13V15.6311Z" fill="white" fill-opacity="0.5"/>
<path id="Vector_2" d="M0 8.74161C0 6.11454 0 3.48796 0 0.860887C0 0.194724 0.177282 0 0.781915 0C4.85269 0 8.92347 0 12.9943 0C13.5047 0 13.7128 0.226446 13.7145 0.782314C13.7154 1.05903 13.7038 1.33623 13.7186 1.61148C13.7297 1.82377 13.6685 1.88917 13.4689 1.88819C11.6162 1.8799 9.76299 1.88331 7.9098 1.88331C6.28747 1.88331 4.66469 1.90869 3.04326 1.87209C2.22473 1.85354 1.69958 2.44748 1.70271 3.33032C1.71968 7.94173 1.71075 12.5531 1.71075 17.1645C1.71075 17.3884 1.61191 17.5003 1.41423 17.5003C1.18337 17.5003 0.952945 17.5003 0.722077 17.5003C0.212113 17.4993 0.000893106 17.2719 0.000446553 16.7199C0 14.6624 0.000446553 12.6049 0.000446553 10.5468C0.000446553 9.9451 0.000446553 9.34335 0.000446553 8.74112L0 8.74161Z" fill="white" fill-opacity="0.5"/>
</g>
<defs>
<clipPath id="clip0_728_4134">
<rect width="16" height="20" fill="white"/>
</clipPath>
</defs>
</svg>
