<svg width="21" height="21" viewBox="0 0 21 21" fill="none" xmlns="http://www.w3.org/2000/svg">
<g id="OBJECTS" clip-path="url(#clip0_728_4129)">
<path id="Vector" d="M12.6809 4.65788C12.9662 4.84835 13.2961 4.88835 13.5965 4.90549C13.9017 4.89978 14.1624 4.83787 14.405 4.71788C14.8088 4.51789 14.8287 4.21409 14.4619 3.96744C14.0259 3.67412 13.0648 3.69888 12.6572 4.0141C12.3776 4.23028 12.3795 4.45694 12.6809 4.65788Z" fill="white" fill-opacity="0.5"/>
<path id="Vector_2" d="M6.70775 4.76645C6.9267 4.85597 7.15607 4.91311 7.39682 4.90835C7.70012 4.90549 7.99489 4.85216 8.25839 4.69788C8.64605 4.46932 8.647 4.1541 8.24796 3.9503C7.74562 3.69317 7.21578 3.69221 6.69164 3.8884C6.49923 3.96077 6.29734 4.07124 6.29165 4.30838C6.28502 4.57122 6.50018 4.68169 6.7068 4.76645H6.70775Z" fill="white" fill-opacity="0.5"/>
<path id="Vector_3" d="M1.96105 17.2973C2.7667 17.3087 3.57235 17.3182 4.37706 17.2944C4.82348 17.2811 5.00831 17.4401 4.99599 17.8963C4.97513 18.6258 4.9884 19.3562 4.99409 20.0867C4.99599 20.401 4.95523 20.7457 5.29739 20.9295C5.63672 21.1124 5.90305 20.899 6.1656 20.7238C7.6262 19.7496 9.09343 18.7858 10.5398 17.7906C11.0431 17.4439 11.553 17.283 12.1701 17.2906C14.4126 17.3182 16.6561 17.304 18.8987 17.3011C20.2901 17.2992 20.9915 16.5945 20.9962 15.185C21.0019 13.4232 20.9981 11.6614 20.9962 9.90048C20.9962 8.09104 20.9962 6.2816 20.9962 4.47311C20.9962 3.85504 20.8 3.31983 20.3147 2.91699C20.2067 2.82747 20.0844 2.71128 19.9356 2.76652C19.7659 2.82937 19.8162 3.00651 19.8114 3.14269C19.8038 3.3484 19.8086 3.55505 19.8086 3.76171C19.8029 7.17775 17.439 9.72239 14.0553 9.91191C13.152 9.96238 12.3407 10.0995 11.6298 10.7652C11.0109 11.3452 10.01 11.3604 9.40147 10.7852C8.66596 10.09 7.82335 9.95191 6.88784 9.91C4.06522 9.78049 1.76959 7.72915 1.26345 4.93213C1.1554 4.33216 1.199 3.72933 1.1791 3.12841C1.17531 3.00651 1.21796 2.85318 1.08337 2.78176C0.926028 2.69795 0.817976 2.83604 0.711819 2.9208C0.202837 3.32459 0.0047421 3.87885 0.00379428 4.5112C0.000950806 8.13008 -0.00663179 11.748 0.00948123 15.3669C0.0151682 16.5488 0.780062 17.2811 1.96105 17.2973ZM6.73145 15.3079C6.3381 15.3307 5.94286 15.3126 5.54857 15.3126C5.15427 15.3126 4.75808 15.3326 4.36568 15.306C3.97897 15.2802 3.68799 15.0812 3.6823 14.6593C3.67567 14.2346 3.96949 14.0146 4.35147 14.0012C5.15522 13.9727 5.96087 13.9736 6.76463 14.0012C7.15134 14.0146 7.43095 14.247 7.42052 14.6698C7.41009 15.0936 7.12006 15.286 6.73145 15.3088V15.3079ZM14.3178 11.5147C15.0752 11.4937 15.8334 11.4985 16.5898 11.5166C16.9926 11.5261 17.2978 11.7109 17.3243 12.1632C17.3471 12.547 17.0571 12.808 16.5661 12.8356C16.1888 12.8565 15.8088 12.8394 15.4296 12.8394C15.4296 12.8394 15.4296 12.8403 15.4296 12.8413C15.0666 12.8413 14.7027 12.8565 14.3406 12.8375C13.8534 12.8118 13.5776 12.5527 13.5852 12.1623C13.5918 11.7899 13.8572 11.5271 14.3178 11.5147ZM10.3597 11.5585C10.8564 11.4576 11.3644 11.4642 11.8611 11.5518C12.1701 11.6061 12.3615 11.8356 12.3691 12.1547C12.3767 12.4956 12.1871 12.7308 11.8535 12.7975C11.609 12.847 11.354 12.8413 11.1208 12.8594C10.8668 12.8413 10.628 12.847 10.3976 12.8032C10.065 12.7394 9.86875 12.5137 9.86686 12.1709C9.86496 11.849 10.0488 11.6204 10.3588 11.5575L10.3597 11.5585ZM9.50384 13.9822C10.0545 13.9708 10.6052 13.9793 11.1559 13.9793V13.9812C11.7066 13.9812 12.2582 13.9679 12.808 13.9851C13.3188 14.0003 13.6297 14.2765 13.6165 14.6612C13.6022 15.0545 13.3008 15.3117 12.7843 15.3164C11.6829 15.3279 10.5806 15.3279 9.4792 15.3164C8.93514 15.3107 8.61383 15.0393 8.62426 14.6393C8.63468 14.2365 8.94557 13.9936 9.50289 13.9812L9.50384 13.9822ZM4.48321 11.5109C5.61681 11.4966 6.75041 11.4966 7.88306 11.5109C8.35981 11.5166 8.66027 11.7918 8.66786 12.1642C8.67544 12.5527 8.36455 12.827 7.85747 12.8403C7.29162 12.8556 6.72387 12.8442 6.15707 12.8432C5.60638 12.8432 5.05475 12.8546 4.50407 12.8394C3.98371 12.8251 3.67756 12.5718 3.67282 12.1861C3.66808 11.7975 3.97613 11.5176 4.48321 11.5109Z" fill="white" fill-opacity="0.5"/>
<path id="Vector_4" d="M7.47455 8.60915C8.46787 8.59487 9.25362 8.94628 9.96069 9.57387C10.2877 9.86338 10.6052 9.97671 10.9588 9.63863C11.7701 8.86152 12.7179 8.58439 13.8487 8.60439C16.1832 8.64629 18.1376 6.88351 18.4513 4.56743C18.6143 3.36748 18.5063 2.15992 18.5233 0.956165C18.5338 0.229531 18.311 0.0162072 17.5945 0.0133502C16.2524 0.00858855 14.9102 0.0390634 13.5691 0.00287452C12.5814 -0.0237909 11.6914 0.22096 10.8934 0.786649C10.5957 0.998067 10.3711 0.974259 10.0868 0.772363C9.33134 0.232388 8.48588 -0.026648 7.55038 0.0047792C6.93524 0.0257306 6.31915 0.00858855 5.70307 0.00954088C4.94576 0.00954088 4.1875 0.00382686 3.43018 0.0114456C2.69941 0.0190643 2.50037 0.200008 2.4852 0.945689C2.4653 1.9285 2.43876 2.91417 2.48899 3.89508C2.6378 6.78447 4.59411 8.65105 7.47455 8.60915ZM11.4952 3.28463C12.4601 2.20373 14.5311 2.13135 15.5756 3.14083C16.3329 3.87318 16.2637 4.9817 15.4259 5.61881C14.8761 6.03689 14.2619 6.23592 13.5918 6.19878C12.7539 6.23116 12.0525 5.96451 11.4971 5.35501C10.9483 4.75218 10.954 3.89127 11.4952 3.28558V3.28463ZM5.61208 2.99131C6.61772 2.26087 8.07452 2.22658 9.08301 2.91036C10.1484 3.63223 10.1977 4.8598 9.18727 5.64643C8.65459 6.0607 8.04514 6.23402 7.37408 6.19878C6.70207 6.22735 6.09547 6.03498 5.56658 5.62167C4.65667 4.91122 4.68226 3.66747 5.61302 2.99131H5.61208Z" fill="white" fill-opacity="0.5"/>
</g>
<defs>
<clipPath id="clip0_728_4129">
<rect width="21" height="21" fill="white"/>
</clipPath>
</defs>
</svg>
